# xmcd
#
# Track frame offsets:
# 150
# 21200
# 41835
# 61560
#
# Disc length: 1065 seconds
#
#
# Revision: 2
# Processed by: cddbd v1.5.1PL0 Copyright (c) Steve Scherf et al.
# Submitted via: FreeRIP 2.942 
#
DISCID=29042704
DTITLE=Celine Dion - Celine Dion at the Movies EP
DYEAR=1997
DGENRE=Ballad
TTITLE0=My Heart Will Go On
TTITLE1=Because You Loved Me
TTITLE2=When I Fall In Love
TTITLE3=Beauty And The Beast
EXTD=
EXTT0=
EXTT1=
EXTT2=
EXTT3=
PLAYORDER=
